<svg width="180" height="40" viewBox="0 0 180 40" fill="none" xmlns="http://www.w3.org/2000/svg">
<path fill-rule="evenodd" clip-rule="evenodd" d="M164.21 28.0396C163.6 28.3596 162.24 28.7896 160.5 28.7896C156.61 28.7896 154.07 26.1496 154.07 22.1996C154.07 18.2296 156.79 15.3496 161 15.3496C162.39 15.3496 163.61 15.6996 164.25 16.0196L163.72 17.8296C163.16 17.5096 162.28 17.2196 161 17.2196C158.04 17.2196 156.44 19.4096 156.44 22.0996C156.44 25.0896 158.36 26.9296 160.92 26.9296C162.25 26.9296 163.13 26.5796 163.8 26.2896L164.21 28.0396ZM148.81 27.1296C148.81 26.1396 149.48 25.4496 150.41 25.4496C151.34 25.4496 151.98 26.1396 151.98 27.1296C151.98 28.0896 151.37 28.8096 150.38 28.8096C149.45 28.8096 148.81 28.0896 148.81 27.1296ZM171.46 19.5596L165.62 27.1596V28.5296H176.1V26.6596H168.55V26.6096C169.13 25.9396 169.67 25.2996 170.2 24.5796L175.96 17.0896L175.99 15.6196H166.15V17.5096H173.14V17.5596C172.55 18.2496 172.02 18.8696 171.46 19.5596Z" fill="#0C1B49"/>
<path fill-rule="evenodd" clip-rule="evenodd" d="M114.59 5.8C114.59 7.33 113.46 8.56 111.61 8.56C109.87 8.56 108.74 7.32 108.74 5.8C108.74 4.2 109.87 3 111.68 3C113.47 3 114.56 4.2 114.59 5.8ZM104.52 31.79C105.97 31.68 107.1 31.35 107.79 30.63C108.59 29.79 108.88 28.38 108.88 24.85V10.75H114.44V26.16C114.44 30.05 113.57 32.41 111.93 33.94C110.29 35.47 107.71 36.12 105.06 36.12L104.52 31.79ZM49.7 19.43C49.7 25.94 45.08 28.92 40.32 28.92C35.12 28.92 31.12 25.5 31.12 19.76C31.12 14.02 34.9 10.34 40.61 10.34C46.06 10.35 49.7 14.09 49.7 19.43ZM36.83 19.62C36.83 22.67 38.1 24.96 40.47 24.96C42.61 24.96 44 22.81 44 19.62C44 16.97 42.98 14.28 40.47 14.28C37.81 14.27 36.83 17 36.83 19.62ZM4.99 23.69C6.01 24.31 8.12 25.04 9.75 25.04C11.42 25.04 12.11 24.46 12.11 23.55C12.11 22.64 11.56 22.2 9.49 21.51C5.82 20.27 4.4 18.27 4.44 16.17C4.44 12.86 7.28 10.35 11.67 10.35C13.74 10.35 15.6 10.82 16.69 11.37L15.71 15.19C14.91 14.75 13.38 14.17 11.86 14.17C10.52 14.17 9.75 14.72 9.75 15.62C9.75 16.46 10.44 16.89 12.62 17.66C16 18.82 17.42 20.53 17.45 23.15C17.45 26.46 14.83 28.89 9.74 28.89C7.41 28.89 5.34 28.38 4 27.65L4.99 23.69ZM19.71 16.6C19.71 13.98 19.64 12.27 19.56 10.75H24.32L24.5 14.02H24.65C25.56 11.44 27.74 10.35 29.45 10.35C29.96 10.35 30.21 10.35 30.61 10.42V15.62C30.21 15.55 29.74 15.47 29.12 15.47C27.08 15.47 25.7 16.56 25.34 18.27C25.27 18.63 25.23 19.07 25.23 19.51V28.53H19.7V16.6H19.71ZM55.81 10.75L58.21 19C58.65 20.49 58.97 21.91 59.23 23.33H59.34C59.63 21.88 59.92 20.53 60.32 19L62.61 10.75H68.43L61.81 28.53H56.28L49.81 10.75H55.81ZM69.73 10.75C69.81 12.31 69.88 14.2 69.88 16.42H69.86V28.52H75.39V18.27C75.39 17.76 75.46 17.22 75.61 16.89C75.97 15.87 76.88 14.82 78.41 14.82C80.41 14.82 81.21 16.38 81.21 18.67V28.52H86.74V17.98C86.74 12.75 84.02 10.35 80.38 10.35C77.43 10.35 75.62 12.06 74.89 13.19H74.78L74.53 10.75H69.73ZM99.36 24.78C96.78 24.78 94.52 23.69 94.34 21.4V21.39H105.81C105.88 20.99 105.99 20.16 105.99 19.21C105.99 14.81 103.8 10.34 98.06 10.34C91.88 10.34 89.08 15.32 89.08 19.83C89.08 25.39 92.54 28.88 98.57 28.88C100.97 28.88 103.18 28.52 105 27.79L104.27 24.05C102.78 24.53 101.25 24.78 99.36 24.78ZM97.72 14.02C100.27 14.02 100.85 16.28 100.85 17.62H94.3C94.45 16.13 95.39 14.02 97.72 14.02Z" fill="#0C1B49"/>
<path fill-rule="evenodd" clip-rule="evenodd" d="M123.86 10.7502V5.66016L118.45 6.89016V10.7502H116.09V14.8102H118.45V22.0802C118.45 24.5902 118.96 26.3002 119.98 27.3502C120.85 28.2602 122.34 28.8802 124.12 28.8802C125.68 28.8802 126.99 28.7002 127.72 28.4102L127.68 24.2302C127.28 24.3102 126.73 24.3802 126.04 24.3802C124.37 24.3802 123.86 23.4002 123.86 21.2502V14.8202H127.82V10.7502H123.86ZM138.01 10.3502C132.88 10.3502 128.72 14.5102 128.72 19.6402C128.72 24.7702 132.88 28.9302 138.01 28.9302C143.14 28.9302 147.3 24.7702 147.3 19.6402C147.3 14.5102 143.14 10.3502 138.01 10.3502ZM142.26 19.6402C142.26 20.1231 141.614 20.6061 141.179 20.9309C141.101 20.9895 141.029 21.0428 140.97 21.0902C139.918 21.9135 138.062 23.0215 136.743 23.8091L136.39 24.0202C135.08 24.0202 134.68 20.4402 134.68 19.6402V19.6302C134.68 18.7902 135.08 15.2502 136.39 15.2502L136.743 15.4612L136.743 15.4612C138.062 16.2488 139.918 17.3568 140.97 18.1802C141.029 18.2275 141.101 18.2809 141.179 18.3394C141.614 18.6642 142.26 19.1472 142.26 19.6302V19.6402Z" fill="#009DC5"/>
<path fill-rule="evenodd" clip-rule="evenodd" d="M123.86 10.7502V5.66016L118.45 6.89016V10.7502H116.09V14.8102H118.45V22.0802C118.45 24.5902 118.96 26.3002 119.98 27.3502C120.85 28.2602 122.34 28.8802 124.12 28.8802C125.68 28.8802 126.99 28.7002 127.72 28.4102L127.68 24.2302C127.28 24.3102 126.73 24.3802 126.04 24.3802C124.37 24.3802 123.86 23.4002 123.86 21.2502V14.8202H127.82V10.7502H123.86ZM138.01 10.3502C132.88 10.3502 128.72 14.5102 128.72 19.6402C128.72 24.7702 132.88 28.9302 138.01 28.9302C143.14 28.9302 147.3 24.7702 147.3 19.6402C147.3 14.5102 143.14 10.3502 138.01 10.3502ZM142.26 19.6402C142.26 20.1231 141.614 20.6061 141.179 20.9309C141.101 20.9895 141.029 21.0428 140.97 21.0902C139.918 21.9135 138.062 23.0215 136.743 23.8091L136.39 24.0202C135.08 24.0202 134.68 20.4402 134.68 19.6402V19.6302C134.68 18.7902 135.08 15.2502 136.39 15.2502L136.743 15.4612L136.743 15.4612C138.062 16.2488 139.918 17.3568 140.97 18.1802C141.029 18.2275 141.101 18.2809 141.179 18.3394C141.614 18.6642 142.26 19.1472 142.26 19.6302V19.6402Z" fill="#00A7BF"/>
</svg>
